<?xml version="1.0" encoding="utf-8"?>
<!-- Generator: Adobe Illustrator 25.4.1, SVG Export Plug-In . SVG Version: 6.00 Build 0)  -->
<svg version="1.1" id="Layer_1" xmlns="http://www.w3.org/2000/svg" xmlns:xlink="http://www.w3.org/1999/xlink" x="0px" y="0px"
	 viewBox="0 0 306.4 369.9" style="enable-background:new 0 0 306.4 369.9;" xml:space="preserve">
<style type="text/css">
	.st0{stroke:#FFFFFF;stroke-miterlimit:10;}
	.st1{fill:#0B053A;stroke:#FFFFFF;stroke-width:3;stroke-miterlimit:10;}
	.st2{fill:#0B053A;stroke:#FFFFFF;stroke-width:4;stroke-miterlimit:10;}
	.st3{fill:#FFFFFF;stroke:#0B053A;stroke-width:3;stroke-miterlimit:10;}
	.st4{fill:none;stroke:#FFFFFF;stroke-width:4;stroke-miterlimit:10;}
	.st5{fill:#000066;}
	.st6{font-family:'MyriadPro-Regular';}
	.st7{font-size:75.35px;}
	.st8{font-family:'AdobeMyungjoStd-Medium-KSCpc-EUC-H';}
	.st9{letter-spacing:-3;}
</style>
<circle class="st0" cx="33.8" cy="144.2" r="7.9"/>
<circle class="st0" cx="61.5" cy="128.4" r="7.9"/>
<circle class="st0" cx="251.6" cy="144.2" r="7.9"/>
<circle class="st0" cx="223.9" cy="128.4" r="7.9"/>
<path class="st1" d="M88.6,110.6l-70.7,44.5c-1,0.6-1.6,1.7-1.6,2.9v16.7c0,1.9,1.6,3.5,3.5,3.5l0,0h68.8"/>
<path class="st1" d="M195.8,110.3l70.7,44.5c1,0.6,1.6,1.7,1.6,2.9v16.7c0,1.9-1.6,3.5-3.5,3.5h-68.8"/>
<path class="st1" d="M82.1,194.8c-3.6,0-6.4-2.9-6.4-6.4c0,0,0,0,0-0.1C76.9,84.8,105.5,2,140.7,2s63.8,82.8,65,186.2
	c0,3.6-2.8,6.5-6.4,6.5c0,0,0,0-0.1,0H82.1z"/>
<path class="st2" d="M82.1,194.8c-3.6,0-6.4-2.9-6.4-6.4c0,0,0,0,0-0.1C76.9,84.8,105.5,2,140.7,2s63.8,82.8,65,186.2
	c0,3.6-2.8,6.5-6.4,6.5c0,0,0,0-0.1,0H82.1z"/>
<path class="st3" d="M107.5,164.5c-2,0-3.7-1.6-3.7-3.6c0,0,0,0,0,0c0.7-58,17.4-104.4,38-104.4s37.3,46.4,38,104.4
	c0,2-1.7,3.7-3.7,3.6c0,0,0,0-0.1,0H107.5z"/>
<path class="st1" d="M195.5,202H84c-3.4,0-6.1,1.3-6.1,2.8c1.1,45.1,28.4,81.2,61.9,81.2s60.8-36.1,61.9-81.2
	C201.6,203.2,198.9,202,195.5,202z M139.8,285.7c-22.1,0-40.2-32.2-40.9-72.4c0-1.4,1.8-2.5,4-2.5h73.7c2.2,0,4.1,1.1,4,2.5
	C179.9,253.5,161.9,285.7,139.8,285.7z"/>
<path class="st4" d="M174.4,10.9c0,10.9-15.1,19.8-33.7,19.8S107,21.9,107,10.9"/>
<text transform="matrix(1 0 0 1 0 351.07)" class="st5 st6 st7">A</text>
<text transform="matrix(1 0 0 1 46.12 351.07)" class="st5 st8 st7"> </text>
<text transform="matrix(1 0 0 1 71.21 351.07)" class="st5 st6 st7">T</text>
<text transform="matrix(1 0 0 1 108.66 351.07)" class="st5 st6 st7">R</text>
<text transform="matrix(1 0 0 1 149.58 351.07)" class="st5 st6 st7 st9">A</text>
<text transform="matrix(1 0 0 1 191.7 351.07)" class="st5 st6 st7">VEL</text>
</svg>
