<svg id="Layer_1" data-name="Layer 1" xmlns="http://www.w3.org/2000/svg" viewBox="0 0 163 163"><defs><style>.cls-1{fill:#4d4d4d;}.cls-2{fill:#fff;}</style></defs><circle class="cls-1" cx="81.5" cy="81.5" r="81.5"/><path d="M409.68,247.68a81.53,81.53,0,0,1-64.41,72.59l-49.13-49.13a41.9,41.9,0,0,1-4.08-2.6,1.5,1.5,0,0,1,1-2.71,32.71,32.71,0,0,0,18-3.58l-3.43-3a16.65,16.65,0,0,1-7-7.72,2.63,2.63,0,0,1-.33-2.82,2.38,2.38,0,0,1,1.91-1.14,17.41,17.41,0,0,1-8.2-13.28,2.61,2.61,0,0,1,.72-2.58,3.09,3.09,0,0,1,3-.23A17.81,17.81,0,0,1,295.63,213c.26-.59.76-1.75,2-1.94a2.84,2.84,0,0,1,2.48,1.22A45.47,45.47,0,0,0,324,226.7a15.46,15.46,0,0,1,2.32.43,21.64,21.64,0,0,0,3.93.65c-1.06-7.31,2.67-14.36,9.56-18s15-2.8,20.46,2.26c1.67,1,4.22-.27,6.68-1.49a24.92,24.92,0,0,1,3.12-1.38,1.51,1.51,0,0,1,1.16.08,1.07,1.07,0,0,1,.21.13,1.57,1.57,0,0,1,.44.52Z" transform="translate(-247 -159)"/><path class="cls-2" d="M374.47,217.56a16.82,16.82,0,0,1-4.69,5.65c-2.11,1.87-3.39,3.11-3.3,4.92.53,17.37-9.53,33.64-26.25,42.49a50.55,50.55,0,0,1-14.05,5,46.54,46.54,0,0,1-9.06.9,42.72,42.72,0,0,1-21-5.38,41.9,41.9,0,0,1-4.08-2.6,1.5,1.5,0,0,1,1-2.71,32.71,32.71,0,0,0,18-3.58c.51-.27,1-.55,1.51-.85a26.92,26.92,0,0,1-4.94-2.19,16.65,16.65,0,0,1-7-7.72,2.63,2.63,0,0,1-.33-2.82,2.38,2.38,0,0,1,1.91-1.14,17.41,17.41,0,0,1-8.2-13.28,2.61,2.61,0,0,1,.72-2.58,3.09,3.09,0,0,1,3-.23A17.81,17.81,0,0,1,295.63,213c.26-.59.76-1.75,2-1.94a2.84,2.84,0,0,1,2.48,1.22A45.47,45.47,0,0,0,324,226.7a15.46,15.46,0,0,1,2.32.43,21.64,21.64,0,0,0,3.93.65c-1.06-7.31,2.67-14.36,9.56-18s15-2.8,20.46,2.26c1.67,1,4.22-.27,6.68-1.49a24.92,24.92,0,0,1,3.12-1.38,1.51,1.51,0,0,1,1.16.08,1.07,1.07,0,0,1,.21.13,1.57,1.57,0,0,1,.44.52,1.49,1.49,0,0,1,.16.72c0,2.08-.67,3.4-3.08,6.12.54-.16,1.09-.35,1.65-.54s1.35-.45,2.05-.66a1.49,1.49,0,0,1,1.81,2Z" transform="translate(-247 -159)"/></svg>