<?xml version="1.0" encoding="utf-8"?>
<!-- Generator: Adobe Illustrator 25.4.1, SVG Export Plug-In . SVG Version: 6.00 Build 0)  -->
<svg version="1.1" id="Layer_1" xmlns="http://www.w3.org/2000/svg" xmlns:xlink="http://www.w3.org/1999/xlink" x="0px" y="0px"
	 viewBox="0 0 640 480" style="enable-background:new 0 0 640 480;" xml:space="preserve">
<style type="text/css">
	.st0{fill:#0B053A;}
	.st1{fill:#FFFFFF;}
</style>
<g>
	<path class="st0" d="M513.5,307c0.15,0,0.31,0.01,0.46,0.01V186.99c-0.15,0-0.31,0.01-0.46,0.01c-12.87,0-23.33-10.36-23.49-23.19
		H188.99c-0.16,12.68-10.37,22.94-23.03,23.18v120.02c12.77,0.25,23.04,10.66,23.04,23.49c0,0.1-0.01,0.21-0.01,0.31h301.02
		c0-0.1-0.01-0.21-0.01-0.31C490,317.52,500.52,307,513.5,307z"/>
</g>
<g>
	<path class="st1" d="M256.85,229.12v-1.66c3.86-0.47,4.33-1.07,3.5-3.32c-0.77-2.31-1.96-5.28-3.21-9.02h-12.82
		c-0.95,2.67-1.84,4.99-2.67,7.42c-1.31,3.86-0.48,4.33,4.39,4.93v1.66h-13.71v-1.66c3.74-0.47,4.69-0.89,6.77-6.23l12.29-31.16
		l1.9-0.36c3.74,10.15,7.83,21.37,11.57,31.64c1.9,5.16,2.43,5.64,6.65,6.11v1.66H256.85z M250.92,197.48
		c-1.9,5.1-3.92,10.51-5.7,15.2h11.1L250.92,197.48z"/>
	<path class="st1" d="M311.52,192.2c-3.74,0.24-5.1,1.19-5.22,3.92c-0.06,1.37-0.18,3.86-0.18,9.32v6.41
		c0,6.05-0.71,10.68-4.16,14.31c-2.79,2.91-6.83,3.8-10.92,3.8c-3.44,0-7.12-0.71-9.73-2.73c-3.56-2.73-5.28-6.83-5.28-13.77v-15.14
		c0-5.34-0.47-5.7-5.22-6.11v-1.66h15.61v1.66c-4.75,0.3-5.22,0.77-5.22,6.11v14.84c0,8.67,4.1,13.41,11.22,13.41
		c8.43,0,11.1-5.22,11.1-15.08v-6.05c0-5.46-0.18-7.72-0.3-9.32c-0.18-2.67-1.54-3.68-5.94-3.92v-1.66h14.25V192.2z"/>
	<path class="st1" d="M335.09,199.56c-1.01-3.92-2.67-7.78-8.25-7.78c-4.63,0-6.23,3.38-6.23,6.47c0,4.1,2.61,6.17,7.54,8.73
		c7.12,3.68,10.21,6.41,10.21,12.05c0,6.23-5.4,10.98-13.06,10.98c-3.56,0-6.65-1.01-9.08-1.96c-0.47-1.66-1.19-5.7-1.6-8.9
		l1.84-0.48c1.19,3.98,3.8,9.14,9.97,9.14c4.27,0,6.89-2.97,6.89-6.83c0-4.57-2.43-6.41-7.66-9.26c-6.23-3.38-9.73-6.23-9.73-11.75
		c0-5.28,4.39-10.27,12.23-10.27c3.32,0,6.59,0.89,7.83,1.13c0.24,2.14,0.47,4.51,0.95,8.37L335.09,199.56z"/>
	<path class="st1" d="M374.62,199.85c-0.53-1.9-1.25-3.86-1.9-4.93c-0.95-1.6-1.54-2.02-4.81-2.02h-5.94v28.91
		c0,4.63,0.48,5.28,6.11,5.64v1.66h-17.27v-1.66c5.52-0.36,5.99-0.95,5.99-5.64v-28.91h-5.4c-3.26,0-4.21,0.36-5.22,2.14
		c-0.71,1.19-1.19,2.61-1.96,4.81h-1.78c0.36-3.62,0.71-7.36,0.89-10.68h1.37c0.89,1.42,1.54,1.37,3.21,1.37h23.51
		c1.66,0,2.14-0.24,3.03-1.37h1.42c0,2.79,0.24,7.06,0.53,10.51L374.62,199.85z"/>
	<path class="st1" d="M381.27,229.12v-1.66c4.87-0.53,5.34-0.77,5.34-5.82v-23.56c0-5.1-0.47-5.34-5.34-5.88v-1.66h15.91v1.66
		c-4.93,0.53-5.4,0.77-5.4,5.88v23.56c0,5.1,0.48,5.28,5.4,5.82v1.66H381.27z"/>
	<path class="st1" d="M444.19,192.2c-3.8,0.42-5.04,1.01-5.22,3.74c-0.06,1.9-0.18,4.39-0.18,9.91v23.8h-2.26l-25.4-31.04v14.84
		c0,5.34,0.18,8.01,0.3,9.73c0.12,3.03,1.6,3.92,5.88,4.27v1.66h-14.42v-1.66c3.68-0.3,5.1-1.19,5.34-4.1
		c0.18-1.9,0.3-4.57,0.3-9.97v-15.14c0-1.66-0.12-2.61-1.19-3.92c-1.13-1.48-2.37-1.84-5.28-2.14v-1.66h8.9l25.17,29.86v-14.54
		c0-5.52-0.12-8.07-0.3-9.85c-0.18-2.67-1.54-3.5-6.29-3.8v-1.66h14.66V192.2z"/>
	<path class="st1" d="M231.63,300.35v-1.66c3.86-0.47,4.33-1.07,3.5-3.32c-0.77-2.31-1.96-5.28-3.21-9.02H219.1
		c-0.95,2.67-1.84,4.99-2.67,7.42c-1.31,3.86-0.48,4.33,4.39,4.93v1.66h-13.71v-1.66c3.74-0.47,4.69-0.89,6.77-6.23l12.29-31.16
		l1.9-0.36c3.74,10.15,7.83,21.37,11.57,31.64c1.9,5.16,2.43,5.64,6.65,6.11v1.66H231.63z M225.69,268.71
		c-1.9,5.1-3.92,10.51-5.7,15.2h11.1L225.69,268.71z"/>
	<path class="st1" d="M248.67,300.35v-1.66c4.87-0.53,5.34-0.77,5.34-5.82V269.3c0-5.1-0.48-5.34-5.34-5.88v-1.66h15.91v1.66
		c-4.93,0.53-5.4,0.77-5.4,5.88v23.57c0,5.1,0.47,5.28,5.4,5.82v1.66H248.67z"/>
	<path class="st1" d="M305.77,300.82c-0.77,0-1.42-0.06-2.2-0.12c-4.33-0.3-6.65-1.42-9.26-5.11c-2.2-3.03-4.33-6.77-6.23-9.79
		c-1.19-1.9-1.96-2.26-4.99-2.26h-2.08v9.32c0,5.04,0.65,5.34,5.4,5.82v1.66h-15.85v-1.66c4.93-0.53,5.34-0.77,5.34-5.82v-23.68
		c0-5.05-0.65-5.22-5.34-5.76v-1.66h15.14c4.33,0,7.24,0.53,9.5,2.02c2.43,1.54,4.04,4.21,4.04,7.83c0,5.1-3.26,8.31-7.66,10.21
		c1.07,1.84,3.62,5.82,5.4,8.49c2.2,3.15,3.32,4.63,4.69,6.11c1.6,1.72,2.97,2.38,4.33,2.73L305.77,300.82z M283.86,281.53
		c3.09,0,5.05-0.47,6.53-1.72c2.32-1.72,3.26-4.1,3.26-7.3c0-6.35-4.21-8.67-8.78-8.67c-1.72,0-2.73,0.24-3.15,0.59
		c-0.53,0.42-0.71,1.01-0.71,2.55v14.54H283.86z"/>
	<path class="st1" d="M337.88,290.49c-0.36,1.84-2.14,8.01-2.73,9.85h-27.6v-1.66c5.4-0.53,5.88-0.83,5.88-5.88v-23.56
		c0-5.05-0.59-5.34-5.34-5.82v-1.66h15.91v1.66c-4.75,0.47-5.4,0.71-5.4,5.82v24.16c0,3.62,0.48,4.45,3.86,4.51
		c0.06,0,4.33,0.06,4.69,0.06c3.03,0,3.92-0.36,5.28-1.84c1.48-1.54,2.73-3.92,3.62-6.11L337.88,290.49z"/>
	<path class="st1" d="M341.8,300.35v-1.66c4.87-0.53,5.34-0.77,5.34-5.82V269.3c0-5.1-0.47-5.34-5.34-5.88v-1.66h15.91v1.66
		c-4.93,0.53-5.4,0.77-5.4,5.88v23.57c0,5.1,0.48,5.28,5.4,5.82v1.66H341.8z"/>
	<path class="st1" d="M404.72,263.43c-3.8,0.42-5.04,1.01-5.22,3.74c-0.06,1.9-0.18,4.39-0.18,9.91v23.8h-2.26l-25.4-31.04v14.84
		c0,5.34,0.18,8.01,0.3,9.73c0.12,3.03,1.6,3.92,5.88,4.27v1.66h-14.42v-1.66c3.68-0.3,5.1-1.19,5.34-4.1
		c0.18-1.9,0.3-4.57,0.3-9.97v-15.14c0-1.66-0.12-2.61-1.19-3.92c-1.13-1.48-2.37-1.84-5.28-2.14v-1.66h8.9l25.17,29.86v-14.54
		c0-5.52-0.12-8.07-0.3-9.85c-0.18-2.67-1.54-3.5-6.29-3.8v-1.66h14.66V263.43z"/>
	<path class="st1" d="M440.27,290.91c-0.36,1.54-1.96,7.66-2.55,9.44h-28.85v-1.66c5.52-0.42,5.94-0.95,5.94-5.82v-23.45
		c0-5.28-0.65-5.58-5.1-6v-1.66h18.16c5.58,0,7.89-0.06,8.61-0.12c0.06,1.48,0.3,5.94,0.53,9.08l-1.78,0.3
		c-0.53-2.02-1.13-3.26-1.78-4.51c-0.95-1.96-2.32-2.38-5.88-2.38h-5.64c-1.84,0-1.96,0.18-1.96,1.9v13.12h6.59
		c4.45,0,4.75-0.89,5.46-4.93h1.84v12.23h-1.84c-0.77-4.27-1.25-4.87-5.52-4.87h-6.53v11.81c0,4.15,1.31,4.51,4.27,4.57h5.52
		c3.62,0,4.21-0.53,5.52-2.08c1.13-1.25,2.37-3.68,3.21-5.46L440.27,290.91z"/>
	<path class="st1" d="M465.03,270.79c-1.01-3.92-2.67-7.78-8.25-7.78c-4.63,0-6.23,3.38-6.23,6.47c0,4.1,2.61,6.17,7.54,8.73
		c7.12,3.68,10.21,6.41,10.21,12.05c0,6.23-5.4,10.98-13.06,10.98c-3.56,0-6.65-1.01-9.08-1.96c-0.47-1.66-1.19-5.7-1.6-8.9
		l1.84-0.47c1.19,3.98,3.8,9.14,9.97,9.14c4.27,0,6.89-2.97,6.89-6.83c0-4.57-2.43-6.41-7.66-9.26c-6.23-3.38-9.73-6.23-9.73-11.75
		c0-5.28,4.39-10.27,12.23-10.27c3.32,0,6.59,0.89,7.83,1.13c0.24,2.14,0.47,4.51,0.95,8.37L465.03,270.79z"/>
</g>
</svg>
