<svg id="Layer_1" data-name="Layer 1" xmlns="http://www.w3.org/2000/svg" viewBox="0 0 163 163"><defs><style>.cls-1{fill:#4d4d4d;}.cls-2{fill:#f2f2f2;}.cls-3{fill:#fff;}.cls-4{fill:none;}</style></defs><circle class="cls-1" cx="81.5" cy="81.5" r="81.5"/><path d="M404.83,268.26a81.67,81.67,0,0,1-27.48,39.52l-47.52-47.52V241.7h10.72a1.5,1.5,0,0,0,1.5-1.5v-7.12a1.5,1.5,0,0,0-1.5-1.5H329.83V225c0-8.55,4.15-9.54,7.26-9.54a9.61,9.61,0,0,1,4.81,1.18,1.5,1.5,0,0,0,2.24-1.31v-7.53a1,1,0,0,0,0-.3Z" transform="translate(-245.64 -162.07)"/><path d="M377.35,307.78a81.48,81.48,0,0,1-23.27,12.73l-33.8-33.8H320a1.5,1.5,0,0,1-1.5-1.5V249l-7.27-7.27h-.14a1.5,1.5,0,0,1-1.5-1.5v-7.12a1.5,1.5,0,0,1,1.5-1.5h7.41v-7c0-5.85,1.74-10.57,5.17-14a19.45,19.45,0,0,1,19.5-4.17,1.47,1.47,0,0,1,.89,1.09,1,1,0,0,1,0,.3v7.53a1.5,1.5,0,0,1-2.24,1.31,9.61,9.61,0,0,0-4.81-1.18c-3.11,0-7.26,1-7.26,9.54v6.55h10.72a1.5,1.5,0,0,1,1.5,1.5v7.12a1.5,1.5,0,0,1-1.5,1.5H329.83v18.56Z" transform="translate(-245.64 -162.07)"/><path class="cls-2" d="M337.09,214a11.19,11.19,0,0,1,5.55,1.37v-7.53a16.35,16.35,0,0,0-6.06-.92,16,16,0,0,0-11.81,4.76q-4.72,4.76-4.73,13v8.45h-8.91v7.12H320v45h8.3v-45h12.21v-7.12H328.34V225Q328.34,214,337.09,214Z" transform="translate(-245.64 -162.07)"/><path class="cls-3" d="M344.1,207.53a1.47,1.47,0,0,0-.89-1.09,19.45,19.45,0,0,0-19.5,4.17c-3.43,3.45-5.17,8.17-5.17,14v7h-7.41a1.5,1.5,0,0,0-1.5,1.5v7.12a1.5,1.5,0,0,0,1.5,1.5h7.41v43.51a1.5,1.5,0,0,0,1.5,1.5h8.29a1.5,1.5,0,0,0,1.5-1.5V241.7h10.72a1.5,1.5,0,0,0,1.5-1.5v-7.12a1.5,1.5,0,0,0-1.5-1.5H329.83V225c0-8.55,4.15-9.54,7.26-9.54a9.61,9.61,0,0,1,4.81,1.18,1.5,1.5,0,0,0,2.24-1.31v-7.53A1,1,0,0,0,344.1,207.53Zm-3,5.56a13.36,13.36,0,0,0-4.05-.6c-4.68,0-10.26,2.17-10.26,12.54v8.05a1.5,1.5,0,0,0,1.5,1.5h10.72v4.12H328.33a1.51,1.51,0,0,0-1.5,1.5v43.51h-5.29V240.2a1.5,1.5,0,0,0-1.5-1.5h-7.41v-4.12H320a1.5,1.5,0,0,0,1.5-1.5v-8.45c0-5.1,1.4-9,4.29-11.9a14.41,14.41,0,0,1,10.75-4.32,18.09,18.09,0,0,1,4.56.49Z" transform="translate(-245.64 -162.07)"/><path class="cls-2" d="M337.09,214a11.19,11.19,0,0,1,5.55,1.37v-7.53a16.35,16.35,0,0,0-6.06-.92,16,16,0,0,0-11.81,4.76q-4.72,4.76-4.73,13v8.45h-8.91v7.12H320v45h8.3v-45h12.21v-7.12H328.34V225Q328.34,214,337.09,214Z" transform="translate(-245.64 -162.07)"/><path class="cls-3" d="M344.1,207.53a1.47,1.47,0,0,0-.89-1.09,19.45,19.45,0,0,0-19.5,4.17c-3.43,3.45-5.17,8.17-5.17,14v7h-7.41a1.5,1.5,0,0,0-1.5,1.5v7.12a1.5,1.5,0,0,0,1.5,1.5h7.41v43.51a1.5,1.5,0,0,0,1.5,1.5h8.29a1.5,1.5,0,0,0,1.5-1.5V241.7h10.72a1.5,1.5,0,0,0,1.5-1.5v-7.12a1.5,1.5,0,0,0-1.5-1.5H329.83V225c0-8.55,4.15-9.54,7.26-9.54a9.61,9.61,0,0,1,4.81,1.18,1.5,1.5,0,0,0,2.24-1.31v-7.53A1,1,0,0,0,344.1,207.53Zm-3,5.56a13.36,13.36,0,0,0-4.05-.6c-4.68,0-10.26,2.17-10.26,12.54v8.05a1.5,1.5,0,0,0,1.5,1.5h10.72v4.12H328.33a1.51,1.51,0,0,0-1.5,1.5v43.51h-5.29V240.2a1.5,1.5,0,0,0-1.5-1.5h-7.41v-4.12H320a1.5,1.5,0,0,0,1.5-1.5v-8.45c0-5.1,1.4-9,4.29-11.9a14.41,14.41,0,0,1,10.75-4.32,18.09,18.09,0,0,1,4.56.49Z" transform="translate(-245.64 -162.07)"/><line class="cls-4" x1="98.46" y1="45.46" x2="98" y2="45"/><polyline class="cls-4" points="64 78 65.63 79.63 72.9 86.9 74.4 88.4 75.9 89.9 81.19 95.19 82.7 96.7 84.19 98.19"/></svg>