<svg id="Layer_1" data-name="Layer 1" xmlns="http://www.w3.org/2000/svg" viewBox="0 0 163 163"><defs><style>.cls-1{fill:#4d4d4d;}.cls-2{fill:#fff;}.cls-3{fill:none;stroke:#fff;stroke-miterlimit:10;stroke-width:4px;}</style></defs><circle class="cls-1" cx="81.5" cy="81.5" r="81.5"/><path d="M396.52,259.75A81.53,81.53,0,0,1,324.73,330l-42.38-42.38a21.36,21.36,0,0,1-9.12-17.5V228.84a21.4,21.4,0,0,1,21.38-21.38h41.24a21.36,21.36,0,0,1,17.5,9.12Z" transform="translate(-234.23 -167.46)"/><path class="cls-2" d="M353.35,216.58a21.36,21.36,0,0,0-17.5-9.12H294.61a21.4,21.4,0,0,0-21.38,21.38v41.24a21.41,21.41,0,0,0,21.38,21.38h41.24a21.4,21.4,0,0,0,21.38-21.38V228.84A21.25,21.25,0,0,0,353.35,216.58Zm-.12,53.5a17.4,17.4,0,0,1-17.38,17.38H294.61a17.4,17.4,0,0,1-17.38-17.38V228.84a17.4,17.4,0,0,1,17.38-17.38h41.24a17.4,17.4,0,0,1,17.38,17.38Z" transform="translate(-234.23 -167.46)"/><rect class="cls-1" x="43" y="44" width="76" height="76" rx="17.38"/><rect class="cls-3" x="64.93" y="65.93" width="32.14" height="32.14" rx="16.07"/><rect class="cls-2" x="100.93" y="54" width="8.07" height="8.07" rx="4.04"/></svg>